<svg xmlns="http://www.w3.org/2000/svg" width="24" height="24" viewBox="0 0 24 24" fill="none">
  <path d="M9.36842 20.0909C10.0808 20.6562 11.0214 21 12.0526 21C13.0838 21 14.0245 20.6562 14.7368 20.0909M4.51097 17.1818C4.08659 17.1818 3.84956 16.5194 4.10627 16.1514C4.70195 15.2975 5.2769 14.0451 5.2769 12.537L5.30147 10.3517C5.30147 6.29145 8.32407 3 12.0526 3C15.8361 3 18.9032 6.33993 18.9032 10.4599L18.8787 12.537C18.8787 14.0555 19.4338 15.3147 20.0053 16.169C20.252 16.5379 20.0144 17.1818 19.5953 17.1818H4.51097Z" stroke="#18191C" style="stroke:#18191C;stroke:color(display-p3 0.0941 0.0980 0.1098);stroke-opacity:1;" stroke-width="1.8" stroke-linecap="round" stroke-linejoin="round"/>
  <circle cx="22" cy="2" r="2" fill="#FF5757" style="fill:#FF5757;fill:color(display-p3 1.0000 0.3423 0.3423);fill-opacity:1;"/>
</svg>