<svg width="40" height="40" viewBox="0 0 40 40" fill="none" xmlns="http://www.w3.org/2000/svg">
<circle cx="20" cy="20" r="20" fill="#F8F8F9" style="fill:#F8F8F9;fill:color(display-p3 0.9725 0.9725 0.9765);fill-opacity:1;"/>
<path d="M27.612 14.4145C27.1722 13.9661 26.65 13.6103 26.0752 13.3676C25.5005 13.1249 24.8844 13 24.2623 13C23.6401 13 23.0241 13.1249 22.4493 13.3676C21.8746 13.6103 21.3524 13.9661 20.9126 14.4145L19.9998 15.3448L19.087 14.4145C18.1986 13.5091 16.9936 13.0005 15.7372 13.0005C14.4809 13.0005 13.2759 13.5091 12.3875 14.4145C11.4991 15.3199 11 16.5479 11 17.8283C11 19.1088 11.4991 20.3367 12.3875 21.2421L13.3003 22.1724L19.9998 29L26.6992 22.1724L27.612 21.2421C28.0521 20.7939 28.4011 20.2617 28.6393 19.676C28.8774 19.0902 29 18.4624 29 17.8283C29 17.1943 28.8774 16.5664 28.6393 15.9807C28.4011 15.3949 28.0521 14.8627 27.612 14.4145Z" fill="#FF5757" stroke="#FF5757" style="fill:#FF5757;fill:color(display-p3 1.0000 0.3423 0.3423);fill-opacity:1;stroke:#FF5757;stroke:color(display-p3 1.0000 0.3423 0.3423);stroke-opacity:1;" stroke-width="1.5" stroke-linecap="round" stroke-linejoin="round"/>
</svg>
