<svg xmlns="http://www.w3.org/2000/svg" width="24" height="24" viewBox="0 0 24 24" fill="none">
  <path fill-rule="evenodd" clip-rule="evenodd" d="M18.0001 1.97864C17.1988 1.97864 16.4303 2.29695 15.8637 2.86356L3.36372 15.3636C3.24838 15.4789 3.16655 15.6234 3.12699 15.7817L2.12699 19.7817C2.05031 20.0884 2.14018 20.4128 2.36372 20.6364C2.58726 20.8599 2.9117 20.9498 3.2184 20.8731L7.2184 19.8731C7.37665 19.8335 7.52117 19.7517 7.63651 19.6364L20.1365 7.13635C20.4171 6.8558 20.6396 6.52273 20.7915 6.15617C20.9433 5.7896 21.0214 5.39672 21.0214 4.99996C21.0214 4.60319 20.9433 4.21031 20.7915 3.84375C20.6396 3.47718 20.4171 3.14412 20.1365 2.86356C19.856 2.58301 19.5229 2.36046 19.1563 2.20862C18.7898 2.05679 18.3969 1.97864 18.0001 1.97864ZM17.1365 4.13635C17.3656 3.90731 17.6762 3.77864 18.0001 3.77864C18.1605 3.77864 18.3193 3.81023 18.4675 3.87161C18.6157 3.93298 18.7503 4.02294 18.8637 4.13635C18.9771 4.24976 19.0671 4.3844 19.1285 4.53258C19.1898 4.68076 19.2214 4.83957 19.2214 4.99996C19.2214 5.16034 19.1898 5.31916 19.1285 5.46734C19.0671 5.61551 18.9771 5.75015 18.8637 5.86356L6.53999 18.1873L4.23705 18.763L4.81278 16.4601L17.1365 4.13635Z" fill="#18191C" style="fill:#18191C;fill:color(display-p3 0.0941 0.0980 0.1098);fill-opacity:1;"/>
  <path d="M12.0001 19.1C11.5031 19.1 11.1001 19.5029 11.1001 20C11.1001 20.497 11.5031 20.9 12.0001 20.9H21.0001C21.4972 20.9 21.9001 20.497 21.9001 20C21.9001 19.5029 21.4972 19.1 21.0001 19.1H12.0001Z" fill="#18191C" style="fill:#18191C;fill:color(display-p3 0.0941 0.0980 0.1098);fill-opacity:1;"/>
</svg>