<svg xmlns="http://www.w3.org/2000/svg" width="16" height="16" viewBox="0 0 16 16" fill="none">
  <path d="M13.0747 4.27638C12.7815 3.97742 12.4333 3.74027 12.0502 3.57846C11.667 3.41666 11.2563 3.33337 10.8415 3.33337C10.4268 3.33337 10.0161 3.41666 9.63289 3.57846C9.24972 3.74027 8.90158 3.97742 8.60837 4.27638L7.99985 4.89655L7.39132 4.27638C6.79905 3.67279 5.99576 3.33369 5.15816 3.33369C4.32057 3.33369 3.51728 3.67279 2.92501 4.27638C2.33273 4.87998 2 5.69864 2 6.55226C2 7.40588 2.33273 8.22453 2.92501 8.82813L3.53353 9.44829L7.99985 14L12.4662 9.44829L13.0747 8.82813C13.368 8.52931 13.6007 8.17451 13.7595 7.78401C13.9183 7.39351 14 6.97496 14 6.55226C14 6.12956 13.9183 5.71101 13.7595 5.3205C13.6007 4.93 13.368 4.57521 13.0747 4.27638Z" stroke="#B4B7BE" style="stroke:#B4B7BE;stroke:color(display-p3 0.7059 0.7176 0.7451);stroke-opacity:1;" stroke-width="1.2" stroke-linecap="round" stroke-linejoin="round"/>
</svg>