<svg xmlns="http://www.w3.org/2000/svg" width="28" height="28" viewBox="0 0 28 28" fill="none">
  <path d="M22.8807 7.48358C22.3676 6.9604 21.7583 6.54537 21.0878 6.26221C20.4172 5.97906 19.6985 5.83331 18.9727 5.83331C18.2468 5.83331 17.5281 5.97906 16.8576 6.26221C16.187 6.54537 15.5778 6.9604 15.0646 7.48358L13.9997 8.56886L12.9348 7.48358C11.8983 6.42728 10.4926 5.83386 9.02679 5.83386C7.56099 5.83386 6.15523 6.42728 5.11876 7.48358C4.08229 8.53988 3.5 9.97253 3.5 11.4664C3.5 12.9602 4.08229 14.3928 5.11876 15.4491L6.18367 16.5344L13.9997 24.5L21.8158 16.5344L22.8807 15.4491C23.3941 14.9262 23.8013 14.3053 24.0791 13.6219C24.357 12.9386 24.5 12.2061 24.5 11.4664C24.5 10.7266 24.357 9.99417 24.0791 9.31079C23.8013 8.62741 23.3941 8.00652 22.8807 7.48358Z" fill="#C5C8CD" stroke="#C5C8CD" style="fill:#C5C8CD;fill:color(display-p3 0.7725 0.7843 0.8039);fill-opacity:1;stroke:#C5C8CD;stroke:color(display-p3 0.7725 0.7843 0.8039);stroke-opacity:1;" stroke-width="2.1" stroke-linecap="round" stroke-linejoin="round"/>
</svg>