<svg xmlns="http://www.w3.org/2000/svg" width="16" height="17" viewBox="0 0 16 17" fill="none">
  <path d="M13.0747 4.77626C12.7815 4.4773 12.4333 4.24014 12.0502 4.07834C11.667 3.91653 11.2563 3.83325 10.8415 3.83325C10.4268 3.83325 10.0161 3.91653 9.63289 4.07834C9.24972 4.24014 8.90158 4.4773 8.60837 4.77626L7.99985 5.39642L7.39132 4.77626C6.79905 4.17266 5.99576 3.83356 5.15816 3.83356C4.32057 3.83356 3.51728 4.17266 2.92501 4.77626C2.33273 5.37986 2 6.19852 2 7.05214C2 7.90575 2.33273 8.72441 2.92501 9.32801L3.53353 9.94817L7.99985 14.4999L12.4662 9.94817L13.0747 9.32801C13.368 9.02919 13.6007 8.67439 13.7595 8.28389C13.9183 7.89339 14 7.47483 14 7.05214C14 6.62944 13.9183 6.21088 13.7595 5.82038C13.6007 5.42988 13.368 5.07508 13.0747 4.77626Z" stroke="#787D87" style="stroke:#787D87;stroke:color(display-p3 0.4706 0.4902 0.5294);stroke-opacity:1;" stroke-width="1.2" stroke-linecap="round" stroke-linejoin="round"/>
</svg>