<svg xmlns="http://www.w3.org/2000/svg" width="29" height="28" viewBox="0 0 29 28" fill="none">
  <path d="M23.2141 7.48358C22.701 6.9604 22.0917 6.54537 21.4212 6.26221C20.7506 5.97906 20.0319 5.83331 19.3061 5.83331C18.5802 5.83331 17.8615 5.97906 17.1909 6.26221C16.5204 6.54537 15.9111 6.9604 15.398 7.48358L14.3331 8.56886L13.2682 7.48358C12.2317 6.42728 10.826 5.83386 9.36016 5.83386C7.89437 5.83386 6.48861 6.42728 5.45213 7.48358C4.41566 8.53988 3.83337 9.97253 3.83337 11.4664C3.83337 12.9602 4.41566 14.3928 5.45213 15.4491L6.51705 16.5344L14.3331 24.5L22.1492 16.5344L23.2141 15.4491C23.7274 14.9262 24.1347 14.3053 24.4125 13.6219C24.6904 12.9386 24.8334 12.2061 24.8334 11.4664C24.8334 10.7266 24.6904 9.99417 24.4125 9.31079C24.1347 8.62741 23.7274 8.00652 23.2141 7.48358Z" fill="#FF5757" stroke="#FF5757" style="fill:#FF5757;fill:color(display-p3 1.0000 0.3423 0.3423);fill-opacity:1;stroke:#FF5757;stroke:color(display-p3 1.0000 0.3423 0.3423);stroke-opacity:1;" stroke-width="2.1" stroke-linecap="round" stroke-linejoin="round"/>
</svg>