<svg xmlns="http://www.w3.org/2000/svg" width="20" height="20" viewBox="0 0 20 20" fill="none">
  <path d="M2.8011 15.4574C2.44963 15.8088 2.44963 16.3787 2.8011 16.7301C3.15258 17.0816 3.72242 17.0816 4.0739 16.7301L2.8011 15.4574ZM7.1875 12.3438L7.8239 11.7074C7.47242 11.3559 6.90258 11.3559 6.5511 11.7074L7.1875 12.3438ZM9.0625 14.2188L8.4261 14.8551C8.77758 15.2066 9.34742 15.2066 9.6989 14.8551L9.0625 14.2188ZM13.2812 10L13.9176 9.3636C13.5662 9.01213 12.9963 9.01213 12.6449 9.3636L13.2812 10ZM16.3949 14.3864C16.7463 14.7379 17.3162 14.7379 17.6676 14.3864C18.0191 14.0349 18.0191 13.4651 17.6676 13.1136L16.3949 14.3864ZM4.0739 16.7301L7.8239 12.9801L6.5511 11.7074L2.8011 15.4574L4.0739 16.7301ZM6.5511 12.9801L8.4261 14.8551L9.6989 13.5824L7.8239 11.7074L6.5511 12.9801ZM9.6989 14.8551L13.9176 10.6364L12.6449 9.3636L8.4261 13.5824L9.6989 14.8551ZM12.6449 10.6364L16.3949 14.3864L17.6676 13.1136L13.9176 9.3636L12.6449 10.6364ZM5.3125 3.4H14.6875V1.6H5.3125V3.4ZM16.6 5.3125V14.6875H18.4V5.3125H16.6ZM14.6875 16.6H5.3125V18.4H14.6875V16.6ZM3.4 14.6875V5.3125H1.6V14.6875H3.4ZM5.3125 16.6C4.25626 16.6 3.4 15.7437 3.4 14.6875H1.6C1.6 16.7379 3.26214 18.4 5.3125 18.4V16.6ZM16.6 14.6875C16.6 15.7437 15.7437 16.6 14.6875 16.6V18.4C16.7379 18.4 18.4 16.7379 18.4 14.6875H16.6ZM14.6875 3.4C15.7437 3.4 16.6 4.25626 16.6 5.3125H18.4C18.4 3.26214 16.7379 1.6 14.6875 1.6V3.4ZM5.3125 1.6C3.26214 1.6 1.6 3.26214 1.6 5.3125H3.4C3.4 4.25626 4.25626 3.4 5.3125 3.4V1.6ZM7.225 6.71875C7.225 6.99834 6.99834 7.225 6.71875 7.225V9.025C7.99246 9.025 9.025 7.99246 9.025 6.71875H7.225ZM6.71875 7.225C6.43916 7.225 6.2125 6.99834 6.2125 6.71875H4.4125C4.4125 7.99246 5.44504 9.025 6.71875 9.025V7.225ZM6.2125 6.71875C6.2125 6.43916 6.43916 6.2125 6.71875 6.2125V4.4125C5.44504 4.4125 4.4125 5.44504 4.4125 6.71875H6.2125ZM6.71875 6.2125C6.99834 6.2125 7.225 6.43916 7.225 6.71875H9.025C9.025 5.44504 7.99246 4.4125 6.71875 4.4125V6.2125Z" fill="#18191C" style="fill:#18191C;fill:color(display-p3 0.0941 0.0980 0.1098);fill-opacity:1;"/>
</svg>