<svg xmlns="http://www.w3.org/2000/svg" width="24" height="24" viewBox="0 0 24 24" fill="none">
  <path d="M15 8.03332V6.04998C15 5.52397 14.7893 5.0195 14.4142 4.64756C14.0391 4.27561 13.5304 4.06665 13 4.06665H6C5.46957 4.06665 4.96086 4.27561 4.58579 4.64756C4.21071 5.0195 4 5.52397 4 6.04998V17.95C4 18.476 4.21071 18.9805 4.58579 19.3524C4.96086 19.7244 5.46957 19.9333 6 19.9333H13C13.5304 19.9333 14.0391 19.7244 14.4142 19.3524C14.7893 18.9805 15 18.476 15 17.95V15.9666M9 12H21M21 12L18 9.02498M21 12L18 14.975" stroke="#18191C" style="stroke:#18191C;stroke:color(display-p3 0.0941 0.0980 0.1098);stroke-opacity:1;" stroke-width="1.7" stroke-linecap="round" stroke-linejoin="round"/>
</svg>