<svg xmlns="http://www.w3.org/2000/svg" width="24" height="24" viewBox="0 0 24 24" fill="none">
  <path d="M15 8.03307V6.04974C15 5.52373 14.7893 5.01926 14.4142 4.64731C14.0391 4.27536 13.5304 4.06641 13 4.06641H6C5.46957 4.06641 4.96086 4.27536 4.58579 4.64731C4.21071 5.01926 4 5.52373 4 6.04974V17.9497C4 18.4758 4.21071 18.9802 4.58579 19.3522C4.96086 19.7241 5.46957 19.9331 6 19.9331H13C13.5304 19.9331 14.0391 19.7241 14.4142 19.3522C14.7893 18.9802 15 18.4758 15 17.9497V15.9664M9 11.9997H21M21 11.9997L18 9.02474M21 11.9997L18 14.9747" stroke="#A8ACB3" style="stroke:#A8ACB3;stroke:color(display-p3 0.6588 0.6745 0.7020);stroke-opacity:1;" stroke-width="1.7" stroke-linecap="round" stroke-linejoin="round"/>
</svg>