<svg xmlns="http://www.w3.org/2000/svg" width="24" height="24" viewBox="0 0 24 24" fill="none">
  <path fill-rule="evenodd" clip-rule="evenodd" d="M4.9 11C4.9 7.63106 7.63106 4.9 11 4.9C14.3689 4.9 17.1 7.63106 17.1 11C17.1 14.3689 14.3689 17.1 11 17.1C7.63106 17.1 4.9 14.3689 4.9 11ZM11 3.1C6.63695 3.1 3.1 6.63695 3.1 11C3.1 15.363 6.63695 18.9 11 18.9C12.8573 18.9 14.5648 18.2591 15.9136 17.1864L19.3636 20.6364C19.7151 20.9879 20.2849 20.9879 20.6364 20.6364C20.9879 20.2849 20.9879 19.7151 20.6364 19.3636L17.1864 15.9136C18.2591 14.5648 18.9 12.8573 18.9 11C18.9 6.63695 15.363 3.1 11 3.1Z" fill="#18191C" style="fill:#18191C;fill:color(display-p3 0.0941 0.0980 0.1098);fill-opacity:1;"/>
</svg>