<svg width="33" height="32" viewBox="0 0 33 32" fill="none" xmlns="http://www.w3.org/2000/svg">
<path d="M12.9919 26.7879C13.9417 27.5417 15.1959 28 16.5708 28C17.9458 28 19.2 27.5417 20.1498 26.7879M6.51528 22.9091C5.94943 22.9091 5.63339 22.0259 5.97568 21.5353C6.76992 20.3967 7.53652 18.7269 7.53652 16.716L7.56928 13.8022C7.56928 8.3886 11.5994 4 16.5708 4C21.6155 4 25.705 8.45325 25.705 13.9466L25.6722 16.716C25.6722 18.7407 26.4124 20.4196 27.1743 21.5587C27.5034 22.0505 27.1865 22.9091 26.6277 22.9091H6.51528Z" stroke="#C5C8CD" style="stroke:#C5C8CD;stroke:color(display-p3 0.7725 0.7843 0.8039);stroke-opacity:1;" stroke-width="2.67" stroke-linecap="round" stroke-linejoin="round"/>
<path d="M25.5007 13.4167C29.0445 13.4167 31.9173 10.5439 31.9173 7.00004C31.9173 3.45621 29.0445 0.583374 25.5007 0.583374C21.9568 0.583374 19.084 3.45621 19.084 7.00004C19.084 10.5439 21.9568 13.4167 25.5007 13.4167Z" fill="#E2E3E6" style="fill:#E2E3E6;fill:color(display-p3 0.8863 0.8902 0.9020);fill-opacity:1;"/>
<path d="M27.5423 4.95837L23.459 9.04171" stroke="white" style="stroke:white;stroke-opacity:1;" stroke-width="0.91875" stroke-linecap="round" stroke-linejoin="round"/>
<path d="M23.459 4.95837L27.5423 9.04171" stroke="white" style="stroke:white;stroke-opacity:1;" stroke-width="0.91875" stroke-linecap="round" stroke-linejoin="round"/>
</svg>
