<svg xmlns="http://www.w3.org/2000/svg" width="18" height="19" viewBox="0 0 18 19" fill="none">
  <path d="M14.709 5.31089C14.3792 4.97455 13.9875 4.70775 13.5564 4.52572C13.1254 4.34369 12.6633 4.25 12.1967 4.25C11.7301 4.25 11.2681 4.34369 10.837 4.52572C10.4059 4.70775 10.0143 4.97455 9.68441 5.31089L8.99983 6.00857L8.31524 5.31089C7.64894 4.63184 6.74523 4.25035 5.80294 4.25035C4.86064 4.25035 3.95694 4.63184 3.29063 5.31089C2.62433 5.98994 2.25 6.91092 2.25 7.87124C2.25 8.83156 2.62433 9.75255 3.29063 10.4316L3.97522 11.1293L8.99983 16.25L14.0244 11.1293L14.709 10.4316C15.039 10.0954 15.3008 9.69628 15.4795 9.25697C15.6581 8.81765 15.75 8.34678 15.75 7.87124C15.75 7.39571 15.6581 6.92484 15.4795 6.48552C15.3008 6.04621 15.039 5.64706 14.709 5.31089Z" stroke="#18191C" style="stroke:#18191C;stroke:color(display-p3 0.0941 0.0980 0.1098);stroke-opacity:1;" stroke-width="1.35" stroke-linecap="round" stroke-linejoin="round"/>
</svg>