<svg xmlns="http://www.w3.org/2000/svg" width="12" height="12" viewBox="0 0 12 12" fill="none">
  <path d="M3.6002 4.40001H2.4002C1.73745 4.40001 1.2002 4.93727 1.2002 5.60001C1.2002 6.26275 1.2002 8.93727 1.2002 9.60001C1.2002 10.2628 1.73745 10.8 2.4002 10.8C2.4002 10.8 5.73745 10.8 6.4002 10.8C7.06294 10.8 7.6002 10.2628 7.6002 9.60001V8.10001M9.6002 1.20001L5.6002 1.20001C4.93745 1.20001 4.4002 1.73727 4.4002 2.40001C4.4002 3.06275 4.4002 5.73727 4.4002 6.40001C4.4002 7.06275 4.93745 7.60001 5.6002 7.60001C5.6002 7.60001 8.93745 7.60001 9.60019 7.60001C10.2629 7.60001 10.8002 7.06275 10.8002 6.40001V2.40001C10.8002 1.73727 10.2629 1.20001 9.6002 1.20001Z" stroke="white" style="stroke:white;stroke-opacity:1;" stroke-linecap="round" stroke-linejoin="round"/>
</svg>