<svg xmlns="http://www.w3.org/2000/svg" width="24" height="24" viewBox="0 0 24 24" fill="none">
  <path d="M8 9.33333H6C4.89543 9.33333 4 10.2288 4 11.3333C4 12.4379 4 16.8954 4 18C4 19.1046 4.89543 20 6 20C6 20 11.5621 20 12.6667 20C13.7712 20 14.6667 19.1046 14.6667 18V15.5M18 4L11.3333 4C10.2288 4 9.33333 4.89543 9.33333 6C9.33333 7.10457 9.33333 11.5621 9.33333 12.6667C9.33333 13.7712 10.2288 14.6667 11.3333 14.6667C11.3333 14.6667 16.8954 14.6667 18 14.6667C19.1046 14.6667 20 13.7712 20 12.6667V6C20 4.89543 19.1046 4 18 4Z" stroke="#18191C" style="stroke:#18191C;stroke:color(display-p3 0.0941 0.0980 0.1098);stroke-opacity:1;" stroke-width="1.64999" stroke-linecap="round" stroke-linejoin="round"/>
</svg>