<svg width="36" height="36" viewBox="0 0 36 36" fill="none" xmlns="http://www.w3.org/2000/svg">
<circle cx="18" cy="18" r="17.55" fill="white" stroke="#EEEEEF" style="fill:white;fill-opacity:1;stroke:#EEEEEF;stroke:color(display-p3 0.9333 0.9333 0.9373);stroke-opacity:1;" stroke-width="0.9"/>
<path d="M23.709 13.8109C23.3792 13.4746 22.9875 13.2078 22.5564 13.0257C22.1254 12.8437 21.6633 12.75 21.1967 12.75C20.7301 12.75 20.2681 12.8437 19.837 13.0257C19.4059 13.2078 19.0143 13.4746 18.6844 13.8109L17.9998 14.5086L17.3152 13.8109C16.6489 13.1318 15.7452 12.7504 14.8029 12.7504C13.8606 12.7504 12.9569 13.1318 12.2906 13.8109C11.6243 14.4899 11.25 15.4109 11.25 16.3712C11.25 17.3316 11.6243 18.2526 12.2906 18.9316L12.9752 19.6293L17.9998 24.75L23.0244 19.6293L23.709 18.9316C24.039 18.5954 24.3008 18.1963 24.4795 17.757C24.6581 17.3177 24.75 16.8468 24.75 16.3712C24.75 15.8957 24.6581 15.4248 24.4795 14.9855C24.3008 14.5462 24.039 14.1471 23.709 13.8109Z" stroke="#18191C" style="stroke:#18191C;stroke:color(display-p3 0.0941 0.0980 0.1098);stroke-opacity:1;" stroke-width="1.125" stroke-linecap="round" stroke-linejoin="round"/>
</svg>
