<svg xmlns="http://www.w3.org/2000/svg" width="29" height="30" viewBox="0 0 29 30" fill="none">
  <path d="M0.366862 27.7996C0.366779 28.5359 0.963666 29.133 1.70005 29.133C2.43643 29.1331 3.03345 28.5362 3.03353 27.7999L0.366862 27.7996ZM1.70073 22.9992L3.03407 22.9993L1.70073 22.9992ZM16.1002 19.533C16.8366 19.533 17.4335 18.9361 17.4335 18.1997C17.4335 17.4633 16.8366 16.8664 16.1002 16.8664V19.533ZM26.3574 23.1425C26.8781 23.6632 27.7223 23.6632 28.243 23.1425C28.7637 22.6218 28.7637 21.7776 28.243 21.2569L26.3574 23.1425ZM23.1518 16.1657C22.6311 15.645 21.7869 15.645 21.2662 16.1657C20.7455 16.6864 20.7455 17.5306 21.2662 18.0513L23.1518 16.1657ZM21.2664 21.2568C20.7457 21.7775 20.7457 22.6217 21.2664 23.1424C21.7871 23.6631 22.6313 23.6631 23.152 23.1424L21.2664 21.2568ZM28.2431 18.0512C28.7638 17.5305 28.7638 16.6863 28.2431 16.1656C27.7224 15.6449 26.8782 15.6449 26.3575 16.1656L28.2431 18.0512ZM16.3669 6.99971C16.3669 8.91429 14.8148 10.4664 12.9002 10.4664V13.133C16.2875 13.133 19.0335 10.3871 19.0335 6.99971H16.3669ZM12.9002 10.4664C10.9856 10.4664 9.43353 8.91429 9.43353 6.99971H6.76686C6.76686 10.3871 9.51285 13.133 12.9002 13.133V10.4664ZM9.43353 6.99971C9.43353 5.08512 10.9856 3.53304 12.9002 3.53304V0.866374C9.51285 0.866374 6.76686 3.61236 6.76686 6.99971H9.43353ZM12.9002 3.53304C14.8148 3.53304 16.3669 5.08512 16.3669 6.99971H19.0335C19.0335 3.61236 16.2875 0.866374 12.9002 0.866374V3.53304ZM3.03353 27.7999L3.03407 22.9993L0.367402 22.999L0.366862 27.7996L3.03353 27.7999ZM6.50074 16.8664C3.11366 16.8664 0.367782 19.6119 0.367402 22.999L3.03407 22.9993C3.03428 21.0849 4.5863 19.533 6.50074 19.533V16.8664ZM6.50074 19.533H16.1002V16.8664H6.50074V19.533ZM28.243 21.2569L25.6974 18.7113L23.8118 20.5969L26.3574 23.1425L28.243 21.2569ZM25.6974 18.7113L23.1518 16.1657L21.2662 18.0513L23.8118 20.5969L25.6974 18.7113ZM23.152 23.1424L25.6974 20.5969L23.8118 18.7113L21.2664 21.2568L23.152 23.1424ZM25.6974 20.5969L28.2431 18.0512L26.3575 16.1656L23.8118 18.7113L25.6974 20.5969Z" fill="#C5C8CD" style="fill:#C5C8CD;fill:color(display-p3 0.7725 0.7843 0.8039);fill-opacity:1;"/>
</svg>