<svg width="48" height="47" viewBox="0 0 48 47" fill="none" xmlns="http://www.w3.org/2000/svg">
<g id="logout">
<circle id="Ellipse 3" cx="24" cy="23.5" r="22.55" fill="white" stroke="#E2E3E6" style="fill:white;fill-opacity:1;stroke:#E2E3E6;stroke:color(display-p3 0.8863 0.8902 0.9020);stroke-opacity:1;" stroke-width="1.1"/>
<path id="Vector" d="M23.756 34.5C19.8127 34.5 17.6371 32.2154 17.2065 29.6077H21.2858C21.4897 30.4846 22.2603 31.0385 23.756 31.0385C25.433 31.0385 26.5661 29.9308 26.5661 28.2462V26.8154C25.7729 27.9 24.5039 28.5231 22.7588 28.5231C18.9516 28.5231 16.3 25.6385 16.3 21.6692C16.3 17.6308 18.9516 14.7 22.7588 14.7C24.5039 14.7 25.7729 15.3231 26.5661 16.4077V15.0231H30.6V28.2923C30.6 31.9615 27.7219 34.5 23.756 34.5ZM23.3934 25.1308C25.365 25.1308 26.6341 23.6769 26.6341 21.6692C26.6341 19.6616 25.365 18.2077 23.3934 18.2077C21.4671 18.2077 20.2433 19.6616 20.2433 21.6692C20.2433 23.6769 21.4671 25.1308 23.3934 25.1308Z" fill="#C5C8CD" style="fill:#C5C8CD;fill:color(display-p3 0.7725 0.7843 0.8039);fill-opacity:1;"/>
</g>
</svg>
