<svg xmlns="http://www.w3.org/2000/svg" width="44" height="44" viewBox="0 0 44 44" fill="none">
  <circle cx="22" cy="22" r="20.4631" fill="white" stroke="#EEEEEF" style="fill:white;fill-opacity:1;stroke:#EEEEEF;stroke:color(display-p3 0.9333 0.9333 0.9373);stroke-opacity:1;" stroke-width="1.07386"/>
  <path d="M22.0922 30.1786C18.8702 30.1786 17.0925 28.3118 16.7407 26.1811H20.0738C20.2405 26.8976 20.8701 27.3501 22.0922 27.3501C23.4625 27.3501 24.3884 26.445 24.3884 25.0685V23.8995C23.7403 24.7857 22.7033 25.2948 21.2775 25.2948C18.1665 25.2948 16 22.9378 16 19.6946C16 16.3947 18.1665 14 21.2775 14C22.7033 14 23.7403 14.5091 24.3884 15.3954V14.264H27.6845V25.1063C27.6845 28.1044 25.3328 30.1786 22.0922 30.1786ZM21.796 22.523C23.407 22.523 24.444 21.335 24.444 19.6946C24.444 18.0541 23.407 16.8661 21.796 16.8661C20.222 16.8661 19.222 18.0541 19.222 19.6946C19.222 21.335 20.222 22.523 21.796 22.523Z" fill="#C5C8CD" style="fill:#C5C8CD;fill:color(display-p3 0.7725 0.7843 0.8039);fill-opacity:1;"/>
</svg>