<svg xmlns="http://www.w3.org/2000/svg" width="44" height="44" viewBox="0 0 44 44" fill="none">
  <circle cx="21.5112" cy="21.5111" r="20.4631" fill="#F8F8F9" stroke="#EEEEEF" style="fill:#F8F8F9;fill:color(display-p3 0.9725 0.9725 0.9765);fill-opacity:1;stroke:#EEEEEF;stroke:color(display-p3 0.9333 0.9333 0.9373);stroke-opacity:1;" stroke-width="1.07386"/>
  <path d="M21.4921 30.4785C18.2701 30.4785 16.4924 28.6118 16.1406 26.481H19.4737C19.6404 27.1976 20.27 27.6501 21.4921 27.6501C22.8624 27.6501 23.7883 26.745 23.7883 25.3685V24.1995C23.1402 25.0857 22.1032 25.5948 20.6774 25.5948C17.5664 25.5948 15.3999 23.2378 15.3999 19.9945C15.3999 16.6947 17.5664 14.3 20.6774 14.3C22.1032 14.3 23.1402 14.8091 23.7883 15.6953V14.564H27.0844V25.4062C27.0844 28.4044 24.7327 30.4785 21.4921 30.4785ZM21.1959 22.823C22.8069 22.823 23.8439 21.635 23.8439 19.9945C23.8439 18.3541 22.8069 17.1661 21.1959 17.1661C19.6219 17.1661 18.6219 18.3541 18.6219 19.9945C18.6219 21.635 19.6219 22.823 21.1959 22.823Z" fill="#C5C8CD" style="fill:#C5C8CD;fill:color(display-p3 0.7725 0.7843 0.8039);fill-opacity:1;"/>
</svg>