<svg width="44" height="44" viewBox="0 0 44 44" fill="none" xmlns="http://www.w3.org/2000/svg">
<g id="default profile">
<circle id="Ellipse 3" cx="21.5117" cy="21.5111" r="20.4631" fill="white" stroke="#EEEEEF" style="fill:white;fill-opacity:1;stroke:#EEEEEF;stroke:color(display-p3 0.9333 0.9333 0.9373);stroke-opacity:1;" stroke-width="1.07386"/>
<path id="Vector" d="M21.4926 30.4785C18.2706 30.4785 16.4929 28.6118 16.1411 26.481H19.4742C19.6409 27.1976 20.2705 27.6501 21.4926 27.6501C22.8629 27.6501 23.7888 26.745 23.7888 25.3685V24.1995C23.1407 25.0857 22.1037 25.5948 20.6779 25.5948C17.5669 25.5948 15.4004 23.2378 15.4004 19.9945C15.4004 16.6947 17.5669 14.3 20.6779 14.3C22.1037 14.3 23.1407 14.8091 23.7888 15.6953V14.564H27.0849V25.4062C27.0849 28.4044 24.7332 30.4785 21.4926 30.4785ZM21.1964 22.823C22.8074 22.823 23.8444 21.635 23.8444 19.9945C23.8444 18.3541 22.8074 17.1661 21.1964 17.1661C19.6224 17.1661 18.6224 18.3541 18.6224 19.9945C18.6224 21.635 19.6224 22.823 21.1964 22.823Z" fill="#C5C8CD" style="fill:#C5C8CD;fill:color(display-p3 0.7725 0.7843 0.8039);fill-opacity:1;"/>
</g>
</svg>
