<svg width="108" height="32" viewBox="0 0 108 32" fill="none" xmlns="http://www.w3.org/2000/svg">
<path d="M102.437 7.92407H107.617L98.1813 31.1641H93.2812L96.2493 23.8841L89.7812 7.92407H95.2972L98.8532 18.0601L102.437 7.92407Z" fill="#18191C" style="fill:#18191C;fill:color(display-p3 0.0941 0.0980 0.1098);fill-opacity:1;"/>
<path d="M89.3028 7.924V12.208H86.0548V24.332H81.0708V12.208H77.8228V7.924H81.0708V3.052H86.0548V7.924H89.3028Z" fill="#18191C" style="fill:#18191C;fill:color(display-p3 0.0941 0.0980 0.1098);fill-opacity:1;"/>
<path d="M73.5803 0C75.3443 0 76.6323 1.288 76.6323 3.052C76.6323 4.816 75.3443 6.104 73.5803 6.104C71.8163 6.104 70.5283 4.816 70.5283 3.052C70.5283 1.288 71.8163 0 73.5803 0ZM76.0723 7.924V24.388H71.0883V7.924H76.0723Z" fill="#18191C" style="fill:#18191C;fill:color(display-p3 0.0941 0.0980 0.1098);fill-opacity:1;"/>
<path d="M42.6367 24.332V7.92398H47.6207V9.49198C48.6007 8.17598 49.8327 7.53198 51.6527 7.53198C53.7247 7.53198 55.4327 8.37198 56.5247 9.88398C57.7567 8.31598 59.4927 7.53198 61.9847 7.53198C65.7647 7.53198 68.2847 10.276 68.2847 14.84V24.332H63.3007V15.68C63.3007 13.188 62.3487 11.816 60.5287 11.816C58.9047 11.816 58.0367 13.104 57.9527 15.428V24.332H52.9687V15.68C52.9687 13.188 52.0167 11.816 50.1967 11.816C48.5727 11.816 47.7047 13.104 47.6207 15.428V24.332H42.6367Z" fill="#18191C" style="fill:#18191C;fill:color(display-p3 0.0941 0.0980 0.1098);fill-opacity:1;"/>
<path d="M36.9661 0C38.7301 0 40.0181 1.288 40.0181 3.052C40.0181 4.816 38.7301 6.104 36.9661 6.104C35.2021 6.104 33.9141 4.816 33.9141 3.052C33.9141 1.288 35.2021 0 36.9661 0ZM39.4581 7.924V24.388H34.4741V7.924H39.4581Z" fill="#18191C" style="fill:#18191C;fill:color(display-p3 0.0941 0.0980 0.1098);fill-opacity:1;"/>
<path d="M20.8696 24.332V7.92398H25.8536V9.60398C26.8336 8.28798 28.3456 7.53198 30.4456 7.53198C31.3696 7.53198 31.9576 7.58798 32.6016 7.81198L32.6576 12.488C31.9576 12.124 31.0896 11.928 30.1096 11.928C27.4496 11.928 25.8536 13.44 25.8536 15.932V24.332H20.8696Z" fill="#18191C" style="fill:#18191C;fill:color(display-p3 0.0941 0.0980 0.1098);fill-opacity:1;"/>
<path d="M9.212 31.556C4.34 31.556 1.652 28.784 1.12 25.62H6.16C6.412 26.684 7.364 27.356 9.212 27.356C11.284 27.356 12.684 26.012 12.684 23.968V22.232C11.704 23.548 10.136 24.304 7.98 24.304C3.276 24.304 0 20.804 0 15.988C0 11.088 3.276 7.53198 7.98 7.53198C10.136 7.53198 11.704 8.28798 12.684 9.60398V7.92398H17.668V24.024C17.668 28.476 14.112 31.556 9.212 31.556ZM8.764 20.188C11.2 20.188 12.768 18.424 12.768 15.988C12.768 13.552 11.2 11.788 8.764 11.788C6.384 11.788 4.872 13.552 4.872 15.988C4.872 18.424 6.384 20.188 8.764 20.188Z" fill="#18191C" style="fill:#18191C;fill:color(display-p3 0.0941 0.0980 0.1098);fill-opacity:1;"/>
</svg>
